<svg width="32" height="32" viewBox="0 0 32 32" fill="none" xmlns="http://www.w3.org/2000/svg">
<path fill-rule="evenodd" clip-rule="evenodd" d="M30.48 6.84953C29.55 7.26953 28.53 7.51953 27.53 7.68953C28 7.60953 28.71 6.74953 28.98 6.39953C29.41 5.86953 29.76 5.26953 29.96 4.60953C29.99 4.55953 30 4.48953 29.96 4.45953C29.9 4.42953 29.85 4.44953 29.8 4.46953C28.68 5.06953 27.53 5.49953 26.3 5.80953C26.2 5.83953 26.12 5.80953 26.06 5.74953C25.96 5.63953 25.86 5.52953 25.75 5.43953C24.51 4.37953 22.92 3.89953 21.35 4.00953C21.35 4.00953 21.36 4.00953 21.37 4.00953H21.25C21.25 4.00953 21.28 4.00953 21.29 4.01953C20.42 4.08953 19.56 4.33953 18.77 4.78953C16.47 6.08953 15.36 8.63953 15.74 11.1995C15.76 11.3395 15.74 11.3595 15.62 11.3395C10.81 10.6195 6.81999 8.89953 3.58999 5.20953C3.44999 5.04953 3.36999 5.04953 3.25999 5.21953C1.83999 7.33953 2.52999 10.7495 4.29999 12.4295C4.53999 12.6495 4.77999 12.8795 5.03999 13.0795C4.93999 13.0995 3.76999 12.9695 2.71999 12.4295C2.57999 12.3395 2.50999 12.3895 2.49999 12.5495C2.48999 12.7795 2.49999 12.9895 2.53999 13.2395C2.80999 15.3895 4.29999 17.3795 6.33999 18.1595C6.57999 18.2595 6.84999 18.3495 7.10999 18.3995C6.64999 18.4995 6.16999 18.5695 4.82999 18.4695C4.65999 18.4395 4.59999 18.5195 4.65999 18.6795C5.65999 21.4095 7.82999 22.2195 9.44999 22.6895C9.66999 22.7295 9.87999 22.7295 10.1 22.7795C10.09 22.7995 10.07 22.7995 10.06 22.8195C9.51999 23.6395 7.65999 24.2495 6.78999 24.5495C5.20999 25.0995 3.48999 25.3495 1.82999 25.1895C1.55999 25.1495 1.50999 25.1495 1.42999 25.1895C1.35999 25.2395 1.42999 25.2995 1.50999 25.3695C1.84999 25.5895 2.18999 25.7895 2.53999 25.9795C3.59999 26.5395 4.69999 26.9895 5.85999 27.3095C12.57 29.1595 19.95 27.2795 24.26 21.6495C26.79 18.3495 27.77 14.2695 27.77 10.1695C27.77 9.97953 27.99 9.87953 28.13 9.77953C29.04 9.08953 29.77 8.26953 30.45 7.34953C30.6 7.13953 30.59 6.95953 30.59 6.87953V6.84953C30.59 6.76953 30.59 6.79953 30.48 6.84953Z" fill="#F5F5F5"/>
</svg>
