<svg width="32" height="32" viewBox="0 0 32 32" fill="none" xmlns="http://www.w3.org/2000/svg">
<path fill-rule="evenodd" clip-rule="evenodd" d="M15.71 4.02911C9.76 4.43911 5.01 9.37911 4.82 15.3391C4.74 17.7491 5.39 20.0791 6.69 22.0791L3.75 27.9991C3.84 27.9991 11.02 26.0591 11.02 26.0591C12.71 26.9691 14.61 27.4391 16.54 27.4391C23 27.4391 28.26 22.1791 28.26 15.7191C28.26 9.25911 22.55 3.55911 15.71 4.02911ZM16.53 25.3991C14.82 25.3991 13.13 24.9391 11.66 24.0791C11.5 23.9891 11.29 23.8391 11.29 23.8391C11.29 23.8391 10.96 23.9491 10.87 23.9691L7.66 24.8491L9.03 21.8291C7.48 19.9191 6.72 17.5591 6.87 15.0991C7.16 10.2991 11.04 6.38911 15.84 6.05911C21.48 5.66911 26.2 10.1491 26.2 15.7091C26.2 21.2691 21.86 25.3891 16.52 25.3891L16.53 25.3991Z" fill="#F5F5F5"/>
<path fill-rule="evenodd" clip-rule="evenodd" d="M21.0399 17.4794C20.5499 17.1894 19.9099 16.8594 19.3299 17.0994C18.8899 17.2794 18.5999 17.9794 18.3199 18.3294C18.1699 18.5094 17.9999 18.5394 17.7699 18.4494C16.0999 17.7894 14.8299 16.6694 13.9099 15.1394C13.7499 14.8994 13.7799 14.7094 13.9699 14.4894C14.2499 14.1594 14.5999 13.7894 14.6699 13.3494C14.7499 12.9094 14.5399 12.3894 14.3599 11.9994C14.1299 11.4994 13.8699 10.7794 13.3699 10.4994C12.9099 10.2394 12.2999 10.3894 11.8899 10.7194C11.1799 11.2994 10.8399 12.1994 10.8499 13.0994C10.8499 13.3594 10.8799 13.6094 10.9399 13.8594C11.4399 15.9094 12.8499 17.6394 14.4999 18.8894C15.9199 19.9694 18.2699 21.4294 20.1399 21.0794C21.0499 20.9094 21.9399 20.3494 22.2999 19.4694C22.4099 19.2094 22.4599 18.9194 22.3999 18.6494C22.2799 18.0894 21.5099 17.7494 21.0499 17.4794H21.0399Z" fill="#F5F5F5"/>
</svg>
